<svg xmlns="http://www.w3.org/2000/svg" viewBox="0 0 159.64 180.75"><defs><style>.cls-1{fill:#56a647;}.cls-2{fill:#231f20;}</style></defs><g id="Layer_2" data-name="Layer 2"><g id="Layer_1-2" data-name="Layer 1"><path class="cls-1" d="M10.94,57.22,1,62.83,0,47.88,58.32,13.32,86.94,27.76l-31,19-5.41-8.33,12.05-8.18-5.34-4.15L10.94,54.2Z"/><path class="cls-1" d="M16.67,133.45l-.13,11.45L3.11,138.26q-.39-33.9-.77-67.79L29.15,52.9l.9,36.37-9.92.53q-.52-7.27-1.06-14.53l-6.26,2.55q.62,27.06,1.24,54.12Z"/><path class="cls-1" d="M85.55,166.61l9.85,5.83-12.47,8.31L23.84,147.52q-.9-16-1.81-32L54,132.93l-4.5,8.85-13.12-6.35q-.45,3.36-.92,6.7l47.49,26Z"/><path class="cls-1" d="M148.71,123.53l10-5.61,1,15-58.32,34.56L72.7,153l31.05-19q2.72,4.16,5.42,8.33l-12.06,8.18,5.34,4.14,46.26-28.13Z"/><path class="cls-1" d="M143,47.3l.12-11.45,13.43,6.64.78,67.79-26.82,17.57-.9-36.37,9.92-.53q.54,7.27,1.07,14.53l6.25-2.55L145.6,48.81Z"/><path class="cls-1" d="M74.09,14.14,64.24,8.31,76.71,0l59.1,33.23,1.8,32-32-17.41L110.17,39l13.11,6.34c.31-2.23.61-4.46.92-6.69l-47.49-26Z"/><rect class="cls-2" x="100.4" y="101.09" width="3.04" height="14.48"/><path class="cls-2" d="M108.34,104.39h0a3,3,0,0,1,3,3v8.13a0,0,0,0,1,0,0h-3a0,0,0,0,1,0,0V104.39A0,0,0,0,1,108.34,104.39Z"/><path class="cls-2" d="M110.43,110.55h3a0,0,0,0,1,0,0V116a1.52,1.52,0,0,1-1.52,1.52h0a1.52,1.52,0,0,1-1.52-1.52v-5.46A0,0,0,0,1,110.43,110.55Z" transform="translate(-2.09 226) rotate(-90)"/><path class="cls-2" d="M104.72,100.83h3a0,0,0,0,1,0,0v7.11a3,3,0,0,1-3,3h0a0,0,0,0,1,0,0V100.83A0,0,0,0,1,104.72,100.83Z" transform="translate(0.33 212.15) rotate(-90)"/><path class="cls-2" d="M98,93h0a1.52,1.52,0,0,1,1.52,1.52v6.54a0,0,0,0,1,0,0h-3a0,0,0,0,1,0,0V94.55A1.52,1.52,0,0,1,98,93Z"/><path class="cls-2" d="M98.44,96.09h3a0,0,0,0,1,0,0V100a3,3,0,0,1-3,3h0a0,0,0,0,1,0,0V96.09A0,0,0,0,1,98.44,96.09Z" transform="translate(0.4 199.53) rotate(-90)"/><path d="M113.58,117.8l-20,.14q0-10.53,0-21.06a3.34,3.34,0,0,0-.92-2.08,3.59,3.59,0,0,0-3-.94L63,93.44V90.09H80.87a20.11,20.11,0,0,0-.13-38.79l-26.85.08v52.16H63v-3.7l20.85,0v26.18h29.32a4.51,4.51,0,0,0,.45-8.25Zm-50-60.45h17.3c.72.64,6.74,6.15,6.1,14.72a18.13,18.13,0,0,1-6.1,12H63.57Z"/><polygon points="69.36 64.54 69.36 70.03 79.11 70.03 79.11 71.92 69.36 71.92 69.36 76.94 79.11 76.94 79.11 78.83 67.09 78.83 67.09 62.64 79.11 62.64 79.11 64.54 69.36 64.54"/></g></g></svg>